<svg width="32" height="32" viewBox="-2 -1 27.5 29.5" fill="none" xmlns="http://www.w3.org/2000/svg">
<style>
        path { fill: #721723; }
        @media (prefers-color-scheme: dark) {
          path { fill: white; }
        }
      </style>
<path d="M11.832 11.824L11.512 11.12L12.44 9.296C12.5893 9.01867 12.7067 8.76267 12.792 8.528C12.8773 8.272 12.9627 8.02667 13.048 7.792C11.704 7.344 10.5093 6.66133 9.464 5.744L8.248 4.656C6.49867 3.07733 5.19733 2.288 4.344 2.288C3.02133 2.288 2.36 2.928 2.36 4.208C2.36 4.63467 2.46667 4.976 2.68 5.232C2.89333 5.488 3.14933 5.616 3.448 5.616C3.68267 5.616 3.864 5.59467 3.992 5.552C4.14133 5.488 4.32267 5.38133 4.536 5.232C4.472 5.82933 4.25867 6.29867 3.896 6.64C3.55467 6.98133 3.08533 7.152 2.488 7.152C1.89067 7.152 1.432 6.928 1.112 6.48C0.792 6.01067 0.632 5.46667 0.632 4.848C0.632 3.78133 0.973333 2.88533 1.656 2.16C2.33867 1.43467 3.29867 1.072 4.536 1.072C5.88 1.072 7.69333 1.98933 9.976 3.824C9.848 3.39733 9.784 2.88533 9.784 2.288C9.784 1.66933 9.99733 1.14667 10.424 0.719999C10.872 0.271999 11.4693 0.0479984 12.216 0.0479984C13.112 0.0479984 13.8373 0.378665 14.392 1.04C14.9467 1.70133 15.224 2.544 15.224 3.568C15.224 4.37867 14.968 5.424 14.456 6.704C14.7547 6.85333 15.16 6.98133 15.672 7.088C16.2053 7.17333 16.6747 7.216 17.08 7.216C17.912 7.216 18.52 7.04533 18.904 6.704C19.3093 6.36267 19.512 5.95733 19.512 5.488C19.512 5.104 19.352 4.80533 19.032 4.592C18.712 4.35733 18.552 3.99467 18.552 3.504C18.552 2.97067 18.7333 2.53333 19.096 2.192C19.4587 1.82933 19.9173 1.648 20.472 1.648C21.048 1.648 21.5173 1.872 21.88 2.32C22.264 2.74667 22.456 3.26933 22.456 3.888C22.456 4.4 22.2533 5.008 21.848 5.712C21.4427 6.416 20.824 7.03467 19.992 7.568C19.1387 8.10133 18.104 8.368 16.888 8.368C15.7573 8.368 14.7547 8.26133 13.88 8.048C13.5173 8.98667 12.8347 10.2453 11.832 11.824ZM13.56 6.256C13.6667 5.82933 13.7413 5.424 13.784 5.04C13.848 4.656 13.88 4.29333 13.88 3.952C13.88 3.29067 13.7093 2.736 13.368 2.288C13.048 1.81867 12.6213 1.584 12.088 1.584C11.5973 1.584 11.224 1.712 10.968 1.968C10.7333 2.224 10.616 2.56533 10.616 2.992C10.616 3.14133 10.6267 3.344 10.648 3.6C10.6693 3.83467 10.7013 4.10133 10.744 4.4C11.256 4.848 11.7573 5.21067 12.248 5.488L13.56 6.256ZM13.88 26.416C12.856 26.416 11.768 26.1707 10.616 25.68C9.464 25.2107 8.36533 24.5493 7.32 23.696C6.27467 22.864 5.38933 21.8933 4.664 20.784C3.59733 19.1413 3.064 17.392 3.064 15.536C3.064 14.2987 3.24533 13.1787 3.608 12.176C3.97067 11.1733 4.49333 10.3733 5.176 9.776C5.88 9.17867 6.73333 8.88 7.736 8.88C8.86667 8.88 9.73067 9.232 10.328 9.936C10.9253 10.6187 11.256 11.7173 11.32 13.232H11.832C12.1307 12.1653 12.664 11.312 13.432 10.672C14.2 10.032 15.1387 9.712 16.248 9.712C17.5067 9.712 18.488 10.128 19.192 10.96C19.9173 11.792 20.28 12.912 20.28 14.32C20.28 15.0667 20.024 15.856 19.512 16.688C19.0213 17.52 18.136 18.352 16.856 19.184C15.5547 20.0373 14.5413 20.7627 13.816 21.36C13.0907 21.936 12.728 22.6187 12.728 23.408C12.728 23.92 12.9413 24.3573 13.368 24.72C13.7947 25.0827 14.264 25.264 14.776 25.264C15.352 25.264 15.8 25.104 16.12 24.784C16.4613 24.4853 16.632 24.0907 16.632 23.6C16.632 23.1947 16.44 22.64 16.056 21.936C16.44 21.168 16.952 20.784 17.592 20.784C18.616 20.784 19.128 21.3387 19.128 22.448C19.128 23.4933 18.68 24.4107 17.784 25.2C16.888 26.0107 15.5867 26.416 13.88 26.416Z"/>
</svg>
